<?xml version="1.0" encoding="UTF-8" standalone="no"?><!DOCTYPE svg PUBLIC "-//W3C//DTD SVG 1.1//EN" "http://www.w3.org/Graphics/SVG/1.1/DTD/svg11.dtd"><svg width="100%" height="100%" viewBox="0 0 200 200" version="1.1" xmlns="http://www.w3.org/2000/svg" xmlns:xlink="http://www.w3.org/1999/xlink" xml:space="preserve" xmlns:serif="http://www.serif.com/" style="fill-rule:evenodd;clip-rule:evenodd;stroke-linejoin:round;stroke-miterlimit:2;"><g id="Layer-1" serif:id="Layer 1"><g id="g1473"><g id="g1475"><g id="g1481"><path id="path1483" d="M46.859,123.478l0,46.958c0,12.967 34.233,23.478 76.462,23.478c42.229,0 76.462,-10.511 76.462,-23.478l0,-46.958l-152.924,0Z" style="fill:#881421;fill-rule:nonzero;"/><path id="path1485" d="M46.859,76.521l0,46.957c0,12.967 34.233,23.479 76.462,23.479c42.229,0 76.462,-10.512 76.462,-23.479l0,-46.957l-152.924,0Z" style="fill:#af2031;fill-rule:nonzero;"/><path id="path1487" d="M46.859,29.564l0,46.957c0,12.967 34.233,23.479 76.462,23.479c42.229,-0 76.462,-10.512 76.462,-23.479l0,-46.957l-152.924,-0Z" style="fill:#c94f60;fill-rule:nonzero;"/><path id="path1489" d="M199.783,29.564c0,1.541 -0.49,3.068 -1.469,4.58c-0.98,1.512 -2.43,2.98 -4.351,4.405c-1.922,1.424 -4.277,2.777 -7.066,4.059c-2.789,1.282 -5.959,2.468 -9.509,3.558c-3.55,1.09 -7.412,2.063 -11.587,2.92c-4.174,0.856 -8.581,1.579 -13.219,2.169c-4.639,0.59 -9.42,1.036 -14.344,1.336c-4.924,0.301 -9.896,0.451 -14.917,0.451c-5.02,0 -9.993,-0.15 -14.917,-0.451c-4.924,-0.3 -9.705,-0.746 -14.344,-1.336c-4.638,-0.59 -9.044,-1.313 -13.219,-2.169c-4.174,-0.857 -8.037,-1.83 -11.587,-2.92c-3.55,-1.09 -6.719,-2.276 -9.509,-3.558c-2.789,-1.282 -5.144,-2.635 -7.065,-4.059c-1.922,-1.425 -3.372,-2.893 -4.352,-4.405c-0.979,-1.512 -1.469,-3.039 -1.469,-4.58c0,-1.542 0.49,-3.069 1.469,-4.581c0.98,-1.512 2.43,-2.98 4.352,-4.404c1.921,-1.424 4.276,-2.777 7.065,-4.059c2.79,-1.282 5.959,-2.468 9.509,-3.558c3.55,-1.09 7.413,-2.063 11.587,-2.92c4.175,-0.856 8.581,-1.58 13.219,-2.17c4.639,-0.59 9.42,-1.035 14.344,-1.336c4.924,-0.3 9.897,-0.451 14.917,-0.451c5.021,0 9.993,0.151 14.917,0.451c4.924,0.301 9.705,0.746 14.344,1.336c4.638,0.59 9.045,1.314 13.219,2.17c4.175,0.857 8.037,1.83 11.587,2.92c3.55,1.09 6.72,2.276 9.509,3.558c2.789,1.282 5.144,2.635 7.066,4.059c1.921,1.424 3.371,2.892 4.351,4.404c0.979,1.512 1.469,3.039 1.469,4.581Z" style="fill:#e08095;fill-rule:nonzero;"/><path id="path1491" d="M105.117,57.847l-0,95.142c0.008,0.487 -0.041,0.969 -0.146,1.445c-0.165,0.977 -0.496,1.895 -0.991,2.756c-0.495,0.86 -1.124,1.61 -1.888,2.248c-0.763,0.639 -1.614,1.127 -2.553,1.466c-0.939,0.338 -1.907,0.505 -2.906,0.502l-49.773,-0l0,-111.976l49.773,0c1.125,-0.002 2.208,0.211 3.249,0.637c1.04,0.427 1.958,1.035 2.754,1.824c0.796,0.79 1.409,1.701 1.839,2.733c0.43,1.032 0.644,2.106 0.642,3.223Z" style="fill-opacity:0.2;fill-rule:nonzero;"/><path id="path1493" d="M108.758,57.847l-0,87.918c-0.015,1.59 -0.333,3.119 -0.953,4.585c-0.621,1.467 -1.498,2.763 -2.632,3.887c-1.133,1.125 -2.439,1.995 -3.918,2.611c-1.478,0.615 -3.019,0.931 -4.622,0.945l-49.773,0l0,-111.975l49.773,0c1.606,0.006 3.15,0.315 4.633,0.927c1.483,0.612 2.792,1.482 3.928,2.609c1.136,1.126 2.012,2.425 2.63,3.896c0.617,1.471 0.928,3.003 0.934,4.597Z" style="fill-opacity:0.09;fill-rule:nonzero;"/><path id="path1495" d="M105.117,57.847l-0,87.918c0.002,1.117 -0.212,2.191 -0.642,3.223c-0.43,1.032 -1.043,1.943 -1.839,2.733c-0.796,0.789 -1.714,1.397 -2.754,1.824c-1.041,0.426 -2.124,0.638 -3.249,0.636l-49.773,0l0,-104.751l49.773,0c1.125,-0.002 2.208,0.211 3.249,0.637c1.04,0.427 1.958,1.035 2.754,1.824c0.796,0.79 1.409,1.701 1.839,2.733c0.43,1.032 0.644,2.106 0.642,3.223Z" style="fill-opacity:0.2;fill-rule:nonzero;"/><path id="path1497" d="M101.476,57.847l-0,87.918c0.002,1.117 -0.212,2.191 -0.642,3.223c-0.43,1.032 -1.043,1.943 -1.839,2.733c-0.796,0.789 -1.714,1.397 -2.754,1.824c-1.041,0.426 -2.124,0.638 -3.249,0.636l-46.132,0l0,-104.751l46.132,0c1.125,-0.002 2.208,0.211 3.249,0.637c1.04,0.427 1.958,1.035 2.754,1.824c0.796,0.79 1.409,1.701 1.839,2.733c0.43,1.032 0.644,2.106 0.642,3.223Z" style="fill-opacity:0.09;fill-rule:nonzero;"/><path id="path1499" d="M8.023,49.43l84.958,0c1.126,0 2.21,0.214 3.251,0.642c1.041,0.428 1.96,1.037 2.756,1.827c0.797,0.79 1.411,1.702 1.842,2.734c0.431,1.033 0.647,2.108 0.647,3.226l-0,84.282c-0,1.118 -0.216,2.193 -0.647,3.225c-0.431,1.033 -1.045,1.944 -1.842,2.735c-0.796,0.79 -1.715,1.399 -2.756,1.827c-1.041,0.427 -2.125,0.641 -3.251,0.641l-84.958,0c-1.127,0 -2.21,-0.214 -3.251,-0.641c-1.041,-0.428 -1.96,-1.037 -2.756,-1.827c-0.797,-0.791 -1.411,-1.702 -1.842,-2.735c-0.431,-1.032 -0.647,-2.107 -0.647,-3.225l0,-84.282c0,-1.118 0.216,-2.193 0.647,-3.226c0.431,-1.032 1.045,-1.944 1.842,-2.734c0.796,-0.79 1.715,-1.399 2.756,-1.827c1.041,-0.428 2.124,-0.642 3.251,-0.642Z" style="fill:#af2031;fill-rule:nonzero;"/><path id="path1501" d="M44.398,72.607l12.516,0l20.102,54.785l-11.822,0l-4.429,-13.066l-20.68,0l-4.352,13.066l-11.745,0l20.41,-54.785Zm13.71,33.276l-6.432,-19.828c-0.53,-1.455 -0.928,-2.945 -1.193,-4.47l-0.231,0c-0.241,1.564 -0.626,3.093 -1.156,4.585l-6.508,19.713l15.52,0Z" style="fill:#fff;fill-rule:nonzero;"/></g></g></g></g></svg>