<?xml version="1.0" encoding="UTF-8" standalone="no"?><!DOCTYPE svg PUBLIC "-//W3C//DTD SVG 1.1//EN" "http://www.w3.org/Graphics/SVG/1.1/DTD/svg11.dtd"><svg width="100%" height="100%" viewBox="0 0 200 200" version="1.1" xmlns="http://www.w3.org/2000/svg" xmlns:xlink="http://www.w3.org/1999/xlink" xml:space="preserve" xmlns:serif="http://www.serif.com/" style="fill-rule:evenodd;clip-rule:evenodd;stroke-linejoin:round;stroke-miterlimit:2;"><g><path d="M197.004,24.216c-0,-11.711 -9.509,-21.22 -21.22,-21.22l-151.568,0c-11.711,0 -21.22,9.509 -21.22,21.22l0,151.568c0,11.711 9.509,21.22 21.22,21.22l151.568,-0c11.711,-0 21.22,-9.509 21.22,-21.22l-0,-151.568Z" style="fill:#092e20;"/><path d="M144.24,74.383l0,50.19c0,17.293 -1.265,25.587 -5.06,32.757c-3.516,6.89 -8.156,11.247 -17.715,16.028l-20.105,-9.56c9.561,-4.499 14.2,-8.434 17.152,-14.482c3.093,-6.185 4.078,-13.356 4.078,-32.194l0,-42.739l21.65,0Zm-34.442,-33.435l-0,100.216c-11.107,2.108 -19.261,2.952 -28.118,2.952c-26.431,-0 -40.209,-11.949 -40.209,-34.867c-0,-22.072 14.622,-36.411 37.256,-36.411c3.515,-0 6.186,0.28 9.42,1.123l-0,-33.013l21.651,0Zm-28.961,49.322c-10.966,-0 -17.293,6.748 -17.293,18.557c-0,11.529 6.045,17.855 17.152,17.855c2.389,0 4.358,-0.14 7.451,-0.561l-0,-34.728c-2.531,-0.842 -4.639,-1.123 -7.31,-1.123Zm63.403,-49.207l0,22.214l-21.65,-0l0,-22.214l21.65,0Z" style="fill:#fffffd;fill-rule:nonzero;"/></g></svg>