<?xml version="1.0" encoding="UTF-8" standalone="no"?><!DOCTYPE svg PUBLIC "-//W3C//DTD SVG 1.1//EN" "http://www.w3.org/Graphics/SVG/1.1/DTD/svg11.dtd"><svg width="100%" height="100%" viewBox="0 0 200 200" version="1.1" xmlns="http://www.w3.org/2000/svg" xmlns:xlink="http://www.w3.org/1999/xlink" xml:space="preserve" xmlns:serif="http://www.serif.com/" style="fill-rule:evenodd;clip-rule:evenodd;stroke-linejoin:round;stroke-miterlimit:2;"><g><path d="M125.443,95.354l-78.982,-13.938l-0,102.989c-0,4.703 3.812,8.516 8.516,8.516l136.287,0c4.704,0 8.516,-3.813 8.516,-8.516l0,-37.944l-74.337,-51.107Z" style="fill:#185c37;fill-rule:nonzero;"/><path d="M125.443,7.079l-70.466,-0c-4.704,-0 -8.516,3.813 -8.516,8.516l-0,37.944l78.982,46.461l41.815,13.938l32.522,-13.938l0,-46.461l-74.337,-46.46Z" style="fill:#21a366;fill-rule:nonzero;"/><rect x="46.461" y="53.539" width="78.983" height="46.461" style="fill:#107c41;fill-rule:nonzero;"/><path d="M102.989,44.247l-56.528,0l-0,116.152l56.528,-0c4.697,-0.016 8.501,-3.819 8.516,-8.516l0,-99.119c-0.015,-4.697 -3.819,-8.501 -8.516,-8.517Z" style="fill-opacity:0.1;fill-rule:nonzero;"/><path d="M98.343,48.893l-51.882,0l-0,116.152l51.882,-0c4.697,-0.016 8.501,-3.819 8.516,-8.516l0,-99.119c-0.015,-4.697 -3.819,-8.501 -8.516,-8.517Z" style="fill-opacity:0.2;fill-rule:nonzero;"/><path d="M98.343,48.893l-51.882,0l-0,106.86l51.882,-0c4.697,-0.016 8.501,-3.82 8.516,-8.517l0,-89.826c-0.015,-4.697 -3.819,-8.501 -8.516,-8.517Z" style="fill-opacity:0.2;fill-rule:nonzero;"/><path d="M93.697,48.893l-47.236,0l-0,106.86l47.236,-0c4.697,-0.016 8.501,-3.82 8.516,-8.517l0,-89.826c-0.015,-4.697 -3.819,-8.501 -8.516,-8.517Z" style="fill-opacity:0.2;fill-rule:nonzero;"/><path d="M8.516,48.893l85.181,0c4.703,0 8.516,3.813 8.516,8.517l0,85.18c0,4.704 -3.813,8.517 -8.516,8.517l-85.181,-0c-4.703,-0 -8.516,-3.813 -8.516,-8.517l-0,-85.18c-0,-4.704 3.813,-8.517 8.516,-8.517Z" style="fill:url(#_Linear1);fill-rule:nonzero;"/><path d="M26.376,127.681l17.915,-27.76l-16.415,-27.607l13.204,0l8.958,17.655c0.827,1.677 1.394,2.922 1.7,3.745l0.117,-0c0.588,-1.338 1.208,-2.638 1.858,-3.898l9.576,-17.493l12.121,0l-16.833,27.445l17.261,27.913l-12.898,0l-10.347,-19.378c-0.487,-0.825 -0.901,-1.691 -1.235,-2.588l-0.154,-0c-0.303,0.879 -0.705,1.72 -1.198,2.509l-10.654,19.457l-12.976,0Z" style="fill:#fff;fill-rule:nonzero;"/><path d="M191.264,7.079l-65.821,-0l0,46.46l74.337,0l0,-37.944c0,-4.703 -3.812,-8.516 -8.516,-8.516Z" style="fill:#33c481;fill-rule:nonzero;"/><rect x="125.443" y="100" width="74.337" height="46.461" style="fill:#107c41;fill-rule:nonzero;"/></g><defs><linearGradient id="_Linear1" x1="0" y1="0" x2="1" y2="0" gradientUnits="userSpaceOnUse" gradientTransform="matrix(66.7002,115.522,-115.522,66.7002,17.7565,42.239)"><stop offset="0" style="stop-color:#18884f;stop-opacity:1"/><stop offset="0.5" style="stop-color:#117e43;stop-opacity:1"/><stop offset="1" style="stop-color:#0b6631;stop-opacity:1"/></linearGradient></defs></svg>