<?xml version="1.0" encoding="UTF-8" standalone="no"?><!DOCTYPE svg PUBLIC "-//W3C//DTD SVG 1.1//EN" "http://www.w3.org/Graphics/SVG/1.1/DTD/svg11.dtd"><svg width="100%" height="100%" viewBox="0 0 200 200" version="1.1" xmlns="http://www.w3.org/2000/svg" xmlns:xlink="http://www.w3.org/1999/xlink" xml:space="preserve" xmlns:serif="http://www.serif.com/" style="fill-rule:evenodd;clip-rule:evenodd;stroke-linejoin:round;stroke-miterlimit:2;"><g><path d="M175.428,98.786c0,-9.998 -8.105,-18.104 -18.103,-18.104c-0.644,0 -1.278,0.035 -1.903,0.1l24.865,-73.338l-105.67,0l24.831,73.275c-0.364,-0.022 -0.73,-0.037 -1.1,-0.037c-9.999,0 -18.104,8.106 -18.104,18.104c-0,8.082 5.296,14.924 12.607,17.252c-3.861,6.688 -8.72,12.712 -14.235,17.915c-7.501,7.077 -16.085,12.442 -25.369,15.748c-11.054,-5.678 -16.274,-18.307 -11.563,-29.38c0.531,-1.25 1.074,-2.518 1.594,-3.779c8.007,-1.869 13.974,-9.049 13.974,-17.626c0,-9.998 -8.105,-18.104 -18.103,-18.104c-10,0 -18.105,8.106 -18.105,18.104c0,6.132 3.051,11.546 7.714,14.822c-4.481,10.203 -11.068,20.879 -13.12,33.254c-2.459,14.831 -0.007,30.574 12.819,39.464c29.873,20.704 62.3,-12.835 96.49,-21.266c12.39,-3.056 25.992,-2.563 36.908,-8.886c8.199,-4.748 13.603,-12.617 15.137,-21.451c1.515,-8.728 -0.694,-17.417 -5.774,-24.463c2.627,-3.142 4.21,-7.187 4.21,-11.604Zm-58.978,0.064c0,-0.021 0.002,-0.043 0.002,-0.064c0,-6.566 -3.496,-12.315 -8.727,-15.489l19.763,-39.963l19.798,40.387c-4.862,3.246 -8.066,8.781 -8.066,15.065c0,0.132 0.008,0.262 0.011,0.394l-22.781,-0.33Z" style="fill:#c63d14;fill-rule:nonzero;"/><path d="M179.849,98.786c0,-10.997 -7.923,-20.172 -18.359,-22.132l24.964,-73.631l-118.004,0l25.002,73.78c-10.073,2.242 -17.63,11.244 -17.63,21.983c0,8.065 4.262,15.148 10.649,19.129c-3.072,4.577 -6.715,8.884 -10.89,12.822c-6.621,6.247 -13.998,10.984 -21.95,14.1c-8.01,-5.031 -11.396,-14.519 -7.879,-22.786l0.275,-0.646c0.172,-0.405 0.345,-0.811 0.517,-1.216c8.797,-3.068 15.129,-11.442 15.129,-21.273c0,-12.421 -10.105,-22.525 -22.525,-22.525c-12.421,-0 -22.526,10.104 -22.526,22.525c0,6.269 2.577,11.946 6.724,16.034c-0.752,1.603 -1.543,3.232 -2.355,4.901c-3.792,7.788 -8.09,16.615 -9.715,26.418c-3.229,19.468 1.978,35.03 14.662,43.821c7.696,5.334 15.512,7.432 23.377,7.432c14.811,-0.001 29.792,-7.441 44.445,-14.719c10.554,-5.242 21.466,-10.662 32.245,-13.32c4.011,-0.99 8.138,-1.585 12.507,-2.215c8.664,-1.25 17.624,-2.542 25.56,-7.138c9.198,-5.328 15.495,-14.266 17.276,-24.521c1.528,-8.803 -0.312,-17.62 -4.799,-25.098c2.092,-3.417 3.3,-7.432 3.3,-11.725Zm-8.842,0c-0,7.545 -6.138,13.683 -13.683,13.683c-7.544,0 -13.683,-6.138 -13.683,-13.683c0,-7.545 6.139,-13.682 13.683,-13.682c7.545,-0 13.683,6.137 13.683,13.682Zm3.112,-86.92l-22.045,65.019c-0.956,0.229 -1.887,0.518 -2.792,0.865l-21.777,-44.425l-21.841,44.162c-0.944,-0.325 -1.915,-0.593 -2.911,-0.791l-21.969,-64.83l93.335,-0Zm-75.772,73.238c7.545,-0 13.683,6.137 13.683,13.682c-0,7.545 -6.138,13.683 -13.683,13.683c-7.544,0 -13.682,-6.138 -13.682,-13.683c-0,-7.545 6.138,-13.682 13.682,-13.682Zm-59.199,0.13c7.545,-0 13.683,6.137 13.683,13.682c-0,7.545 -6.138,13.683 -13.683,13.683c-7.544,0 -13.683,-6.138 -13.683,-13.683c0,-7.545 6.139,-13.682 13.683,-13.682Zm133.487,48.863c-1.331,7.669 -6.068,14.369 -12.996,18.381c-6.457,3.74 -14.196,4.856 -22.389,6.038c-4.389,0.633 -8.928,1.287 -13.362,2.381c-11.724,2.891 -23.08,8.531 -34.061,13.986c-21.977,10.916 -40.956,20.342 -58.851,7.939c-13.109,-9.085 -12.504,-25.895 -10.977,-35.106c1.416,-8.534 5.242,-16.394 8.942,-23.995c0.641,-1.315 1.263,-2.604 1.873,-3.884c1.835,0.734 3.787,1.234 5.821,1.461c-3.766,12.432 2.158,25.948 14.591,32.336l1.701,0.874l1.802,-0.641c9.83,-3.501 18.886,-9.118 26.92,-16.697c5.193,-4.899 9.656,-10.32 13.325,-16.111c1.101,0.166 2.227,0.253 3.373,0.253c12.421,-0 22.526,-10.105 22.526,-22.526c0,-6.68 -2.926,-12.687 -7.56,-16.816l14.157,-28.626l14.3,29.172c-4.291,4.104 -6.972,9.878 -6.972,16.27c0,12.421 10.105,22.526 22.526,22.526c4.772,-0 9.199,-1.496 12.845,-4.037c2.531,5.182 3.475,11.013 2.466,16.822Z" style="fill:#fff;fill-rule:nonzero;"/></g></svg>