<?xml version="1.0" encoding="UTF-8" standalone="no"?><!DOCTYPE svg PUBLIC "-//W3C//DTD SVG 1.1//EN" "http://www.w3.org/Graphics/SVG/1.1/DTD/svg11.dtd"><svg width="100%" height="100%" viewBox="0 0 200 200" version="1.1" xmlns="http://www.w3.org/2000/svg" xmlns:xlink="http://www.w3.org/1999/xlink" xml:space="preserve" xmlns:serif="http://www.serif.com/" style="fill-rule:evenodd;clip-rule:evenodd;stroke-linejoin:round;stroke-miterlimit:2;"><path d="M197.411,31.812c0,-16.129 -13.094,-29.223 -29.223,-29.223l-136.376,-0c-16.129,-0 -29.223,13.094 -29.223,29.223l-0,136.376c-0,16.129 13.094,29.223 29.223,29.223l136.376,0c16.129,0 29.223,-13.094 29.223,-29.223l0,-136.376Z" style="fill:#f7df1e;"/><path d="M125.875,143.379c3.805,6.468 9.132,11.034 17.884,11.034c7.61,0 12.557,-3.805 12.557,-9.132c-0,-6.088 -4.947,-8.371 -13.318,-12.176l-4.566,-1.903c-13.318,-5.708 -22.07,-12.557 -22.07,-27.397c0,-13.698 10.274,-24.353 26.636,-24.353c11.796,0 20.167,4.186 25.875,14.84l-14.079,9.133c-3.044,-5.708 -6.469,-7.991 -11.796,-7.991c-5.327,-0 -8.752,3.424 -8.752,7.991c0,5.327 3.425,7.61 11.416,11.035l4.566,1.902c15.601,6.849 24.353,13.318 24.353,28.919c-0,16.362 -12.938,25.495 -30.441,25.495c-17.124,-0 -28.158,-7.991 -33.486,-18.646l15.221,-8.751Zm-64.687,1.522c3.044,4.946 5.327,9.512 11.796,9.512c6.088,0 9.893,-2.283 9.893,-11.415l-0,-63.165l18.265,-0l-0,62.404c-0,19.026 -11.035,27.397 -27.397,27.397c-14.84,-0 -23.212,-7.61 -27.397,-16.743l14.84,-7.99Z" style="fill-rule:nonzero;"/></svg>