<?xml version="1.0" encoding="UTF-8" standalone="no"?><!DOCTYPE svg PUBLIC "-//W3C//DTD SVG 1.1//EN" "http://www.w3.org/Graphics/SVG/1.1/DTD/svg11.dtd"><svg width="100%" height="100%" viewBox="0 0 200 200" version="1.1" xmlns="http://www.w3.org/2000/svg" xmlns:xlink="http://www.w3.org/1999/xlink" xml:space="preserve" xmlns:serif="http://www.serif.com/" style="fill-rule:evenodd;clip-rule:evenodd;stroke-linejoin:round;stroke-miterlimit:2;"><g><path d="M23.461,104.178l0,-21.349l4.652,-0l0,22.981c0.216,1.852 0.057,3.729 -0.468,5.518c-0.524,1.789 -1.404,3.454 -2.587,4.896c-2.197,1.896 -5.013,2.921 -7.915,2.882l-0.486,-3.472c1.872,0.001 3.678,-0.691 5.069,-1.944c1.249,-1.458 1.735,-3.437 1.735,-9.512Zm34.692,-2.738c0,2.604 0,4.929 0.209,6.943l-4.132,-0l-0.277,-4.131c-0.864,1.462 -2.1,2.668 -3.582,3.498c-1.481,0.829 -3.156,1.251 -4.854,1.223c-4.027,0 -8.818,-2.187 -8.818,-11.109l0,-14.823l4.652,0l0,13.886c0,4.825 1.493,8.054 5.694,8.054c0.864,0.009 1.721,-0.154 2.521,-0.481c0.801,-0.326 1.527,-0.809 2.139,-1.42c0.611,-0.611 1.094,-1.338 1.42,-2.138c0.327,-0.801 0.49,-1.658 0.481,-2.522l-0,-15.552l4.651,-0l0,18.433l-0.104,0.139Zm8.818,-10.14c-0,-3.228 -0,-5.867 -0.208,-8.262l4.165,0l0.209,4.339c0.928,-1.567 2.264,-2.854 3.866,-3.722c1.601,-0.868 3.409,-1.285 5.229,-1.207c6.179,-0 10.831,5.172 10.831,12.879c0,9.095 -5.589,13.608 -11.629,13.608c-1.546,0.069 -3.084,-0.262 -4.465,-0.961c-1.38,-0.7 -2.557,-1.744 -3.416,-3.031l0,13.886l-4.582,0l-0,-27.529Zm4.582,6.77c0.013,0.629 0.083,1.257 0.209,1.874c0.393,1.542 1.29,2.908 2.548,3.882c1.257,0.975 2.804,1.502 4.395,1.499c4.894,-0 7.776,-3.992 7.776,-9.79c-0,-5.068 -2.708,-9.407 -7.603,-9.407c-1.937,0.158 -3.75,1.018 -5.098,2.418c-1.349,1.399 -2.14,3.243 -2.227,5.184l0,4.34Zm27.798,-15.055l5.589,14.962c0.59,1.666 1.215,3.68 1.632,5.173c0.486,-1.528 1.006,-3.472 1.631,-5.277l5.069,-14.858l4.895,-0l-6.943,18.052c-3.472,8.678 -5.59,13.157 -8.783,15.864c-1.609,1.47 -3.57,2.498 -5.694,2.986l-1.145,-3.888c1.485,-0.488 2.863,-1.254 4.062,-2.257c1.693,-1.38 3.037,-3.14 3.922,-5.137c0.19,-0.346 0.319,-0.722 0.382,-1.111c-0.039,-0.419 -0.145,-0.829 -0.312,-1.215l-9.443,-23.363l5.069,-0l0.069,0.069Zm31.165,-7.283l-0,7.29l6.665,0l-0,3.472l-6.665,-0l-0,13.677c-0,3.125 0.902,4.93 3.471,4.93c0.913,0.015 1.823,-0.09 2.708,-0.313l0.208,3.472c-1.327,0.459 -2.727,0.671 -4.131,0.625c-0.929,0.058 -1.861,-0.086 -2.729,-0.421c-0.869,-0.336 -1.655,-0.856 -2.304,-1.523c-1.414,-1.892 -2.06,-4.249 -1.806,-6.596l0,-13.886l-3.957,-0l-0,-3.472l4.027,0l-0,-6.179l4.513,-1.076Zm15.234,20.779c-0.094,1.177 0.068,2.361 0.477,3.469c0.408,1.109 1.051,2.115 1.887,2.95c0.835,0.836 1.841,1.479 2.95,1.887c1.108,0.409 2.292,0.571 3.469,0.477c2.381,0.053 4.747,-0.396 6.943,-1.319l0.798,3.471c-2.694,1.11 -5.592,1.642 -8.505,1.562c-1.698,0.117 -3.401,-0.136 -4.993,-0.74c-1.591,-0.604 -3.033,-1.545 -4.227,-2.758c-1.194,-1.214 -2.111,-2.671 -2.689,-4.272c-0.577,-1.601 -0.802,-3.309 -0.657,-5.005c-0,-7.637 4.547,-13.677 11.976,-13.677c8.332,-0 10.415,7.29 10.415,11.941c0.044,0.717 0.044,1.436 -0,2.153l-17.948,-0l0.104,-0.139Zm13.608,-3.472c0.134,-0.928 0.068,-1.874 -0.195,-2.774c-0.262,-0.9 -0.715,-1.734 -1.327,-2.444c-0.611,-0.711 -1.369,-1.282 -2.22,-1.675c-0.851,-0.393 -1.777,-0.6 -2.715,-0.605c-1.907,0.138 -3.694,0.984 -5.01,2.371c-1.317,1.387 -2.068,3.215 -2.106,5.127l13.573,0Zm11.294,-2.13c-0,-2.986 -0,-5.555 -0.209,-7.915l4.166,-0l0,4.964l0.209,0c0.437,-1.532 1.34,-2.89 2.584,-3.885c1.245,-0.996 2.768,-1.579 4.358,-1.669c0.438,-0.058 0.882,-0.058 1.32,-0l-0,4.339c-0.531,-0.061 -1.067,-0.061 -1.597,0c-1.576,0.061 -3.076,0.694 -4.219,1.78c-1.144,1.086 -1.853,2.551 -1.995,4.122c-0.13,0.71 -0.2,1.43 -0.208,2.152l-0,13.504l-4.583,0l0,-17.357l0.174,-0.035Z" style="fill:#4e4e4e;fill-rule:nonzero;"/><path d="M168.613,13.278c0.143,2.333 -0.412,4.654 -1.594,6.67c-1.182,2.016 -2.936,3.634 -5.041,4.649c-2.105,1.015 -4.464,1.38 -6.777,1.049c-2.313,-0.33 -4.475,-1.342 -6.211,-2.906c-1.736,-1.564 -2.967,-3.609 -3.537,-5.875c-0.569,-2.266 -0.451,-4.65 0.339,-6.849c0.79,-2.199 2.217,-4.113 4.099,-5.498c1.882,-1.385 4.133,-2.178 6.468,-2.279c1.53,-0.084 3.062,0.135 4.508,0.645c1.445,0.51 2.776,1.301 3.915,2.326c1.138,1.026 2.063,2.267 2.721,3.652c0.657,1.385 1.035,2.885 1.11,4.416Z" style="fill:#767677;fill-rule:nonzero;"/><path d="M99.969,149.242c-31.243,-0 -58.702,-11.213 -72.901,-27.772c5.509,14.897 15.45,27.748 28.483,36.825c13.034,9.076 28.536,13.942 44.418,13.942c15.883,-0 31.385,-4.866 44.419,-13.942c13.033,-9.077 22.973,-21.928 28.483,-36.825c-14.164,16.559 -41.519,27.772 -72.902,27.772Z" style="fill:#f37726;fill-rule:nonzero;"/><path d="M99.969,41.564c31.244,-0 58.703,11.213 72.902,27.772c-5.51,-14.897 -15.45,-27.748 -28.483,-36.825c-13.034,-9.076 -28.536,-13.942 -44.419,-13.942c-15.882,0 -31.384,4.866 -44.418,13.942c-13.033,9.077 -22.974,21.928 -28.483,36.825c14.199,-16.594 41.519,-27.772 72.901,-27.772Z" style="fill:#f37726;fill-rule:nonzero;"/><path d="M56.959,181.466c0.183,2.937 -0.512,5.863 -1.998,8.404c-1.485,2.541 -3.693,4.582 -6.343,5.863c-2.65,1.282 -5.621,1.745 -8.535,1.332c-2.914,-0.413 -5.639,-1.684 -7.828,-3.652c-2.189,-1.968 -3.742,-4.542 -4.463,-7.396c-0.72,-2.854 -0.575,-5.857 0.418,-8.628c0.993,-2.771 2.788,-5.183 5.157,-6.93c2.368,-1.747 5.204,-2.749 8.144,-2.879c1.926,-0.103 3.854,0.174 5.673,0.817c1.819,0.642 3.493,1.636 4.928,2.926c1.434,1.289 2.601,2.849 3.433,4.589c0.831,1.74 1.312,3.628 1.414,5.554Z" style="fill:#9e9e9e;fill-rule:nonzero;"/><path d="M30.619,37.79c-1.683,0.047 -3.343,-0.406 -4.77,-1.3c-1.427,-0.894 -2.558,-2.19 -3.251,-3.726c-0.692,-1.535 -0.915,-3.241 -0.64,-4.902c0.274,-1.662 1.034,-3.205 2.183,-4.436c1.149,-1.231 2.637,-2.095 4.276,-2.483c1.639,-0.388 3.356,-0.282 4.935,0.303c1.579,0.586 2.95,1.625 3.94,2.987c0.99,1.363 1.555,2.987 1.624,4.67c0.066,2.275 -0.769,4.485 -2.322,6.149c-1.553,1.664 -3.7,2.648 -5.975,2.738Z" style="fill:#616262;fill-rule:nonzero;"/></g></svg>