<?xml version="1.0" encoding="UTF-8" standalone="no"?><!DOCTYPE svg PUBLIC "-//W3C//DTD SVG 1.1//EN" "http://www.w3.org/Graphics/SVG/1.1/DTD/svg11.dtd"><svg width="100%" height="100%" viewBox="0 0 200 200" version="1.1" xmlns="http://www.w3.org/2000/svg" xmlns:xlink="http://www.w3.org/1999/xlink" xml:space="preserve" xmlns:serif="http://www.serif.com/" style="fill-rule:evenodd;clip-rule:evenodd;stroke-linejoin:round;stroke-miterlimit:2;"><g id="Layer2"><path d="M47.544,71.377l37.331,0l-0,2.974l-33.908,-0l-0,22.38l31.886,-0l-0,2.973l-31.886,0l-0,24.571l34.297,0l-0,2.974l-37.72,0l0,-55.872Zm40.675,0l3.967,0l17.576,24.571l17.965,-24.571l24.436,-31.21l-40.145,58.363l20.687,28.719l-4.123,0l-18.82,-26.136l-18.898,26.136l-4.045,0l20.843,-28.719l-19.442,-27.153l-0.001,0Zm45.964,2.974l-0,-2.974l42.54,0l-0,2.974l-19.598,-0l0,52.897l-3.422,-0l-0,-52.897l-19.52,-0Zm-133.34,-2.974l4.278,0l58.982,88.456l-24.375,-32.584l-35.308,-51.646l-0.156,51.646l-3.421,0l-0,-55.872Zm175.537,52c-0.701,0 -1.225,-0.542 -1.225,-1.243c-0,-0.702 0.524,-1.245 1.224,-1.245c0.707,-0 1.223,0.543 1.223,1.245c0,0.701 -0.516,1.243 -1.223,1.243l0.001,0Zm3.361,-3.274l1.832,0c0.026,0.995 0.751,1.662 1.815,1.662c1.19,0 1.864,-0.717 1.864,-2.062l-0,-8.519l1.864,0l0,8.527c0,2.423 -1.398,3.818 -3.712,3.818c-2.171,-0 -3.662,-1.354 -3.662,-3.426l-0.001,0Zm9.813,-0.107l1.848,0c0.158,1.143 1.273,1.87 2.88,1.87c1.497,-0 2.596,-0.778 2.596,-1.846c0,-0.918 -0.698,-1.47 -2.289,-1.845l-1.548,-0.375c-2.171,-0.51 -3.163,-1.563 -3.163,-3.333c0,-2.147 1.748,-3.576 4.369,-3.576c2.439,-0 4.222,1.429 4.329,3.458l-1.815,-0c-0.174,-1.11 -1.139,-1.804 -2.538,-1.804c-1.474,-0 -2.455,0.71 -2.455,1.796c-0,0.86 0.632,1.353 2.198,1.72l1.323,0.326c2.463,0.576 3.479,1.579 3.479,3.391c-0,2.305 -1.783,3.751 -4.628,3.751c-2.663,-0 -4.453,-1.379 -4.586,-3.534l-0,0.001Z" style="fill-rule:nonzero;"/></g></svg>