<?xml version="1.0" encoding="UTF-8" standalone="no"?><!DOCTYPE svg PUBLIC "-//W3C//DTD SVG 1.1//EN" "http://www.w3.org/Graphics/SVG/1.1/DTD/svg11.dtd"><svg width="100%" height="100%" viewBox="0 0 200 200" version="1.1" xmlns="http://www.w3.org/2000/svg" xmlns:xlink="http://www.w3.org/1999/xlink" xml:space="preserve" xmlns:serif="http://www.serif.com/" style="fill-rule:evenodd;clip-rule:evenodd;stroke-linejoin:round;stroke-miterlimit:2;"><g id="Layer1"><path d="M98.762,159.943c-0.658,0 -1.311,-0.172 -1.888,-0.504l-6.009,-3.558c-0.897,-0.502 -0.459,-0.679 -0.163,-0.781c1.196,-0.419 1.439,-0.514 2.716,-1.239c0.135,-0.077 0.31,-0.05 0.448,0.031l4.616,2.739c0.167,0.09 0.403,0.09 0.558,0l17.999,-10.389c0.167,-0.095 0.275,-0.288 0.275,-0.487l-0,-20.77c-0,-0.207 -0.108,-0.392 -0.279,-0.495l-17.992,-10.381c-0.166,-0.099 -0.387,-0.099 -0.554,0l-17.988,10.381c-0.174,0.099 -0.285,0.293 -0.285,0.491l-0,20.77c-0,0.198 0.108,0.387 0.279,0.482l4.929,2.847c2.676,1.338 4.312,-0.238 4.312,-1.824l-0,-20.5c-0,-0.293 0.229,-0.518 0.522,-0.518l2.28,-0c0.284,-0 0.518,0.225 0.518,0.518l0,20.509c0,3.568 -1.946,5.618 -5.33,5.618c-1.041,-0 -1.86,-0 -4.149,-1.126l-4.722,-2.722c-1.167,-0.676 -1.888,-1.937 -1.888,-3.284l0,-20.77c0,-1.352 0.721,-2.613 1.888,-3.28l18.017,-10.394c1.14,-0.644 2.654,-0.644 3.785,0l17.994,10.399c1.163,0.671 1.888,1.928 1.888,3.279l0,20.77c0,1.347 -0.725,2.604 -1.888,3.28l-17.994,10.394c-0.577,0.334 -1.23,0.505 -1.897,0.505" style="fill:#689f63;fill-rule:nonzero;"/><path d="M104.321,145.631c-7.875,0 -9.526,-3.615 -9.526,-6.647c-0,-0.288 0.232,-0.518 0.521,-0.518l2.325,0c0.257,0 0.473,0.187 0.513,0.441c0.352,2.369 1.397,3.563 6.159,3.563c3.794,0 5.407,-0.856 5.407,-2.868c-0,-1.158 -0.46,-2.019 -6.353,-2.595c-4.929,-0.487 -7.974,-1.573 -7.974,-5.515c-0,-3.631 3.063,-5.794 8.195,-5.794c5.762,0 8.619,2.001 8.979,6.299c0.014,0.148 -0.04,0.293 -0.139,0.401c-0.1,0.103 -0.239,0.166 -0.383,0.166l-2.339,0c-0.243,0 -0.455,-0.171 -0.504,-0.405c-0.564,-2.492 -1.924,-3.289 -5.623,-3.289c-4.141,-0 -4.623,1.442 -4.623,2.523c0,1.311 0.568,1.694 6.155,2.433c5.532,0.734 8.159,1.771 8.159,5.659c0,3.919 -3.271,6.168 -8.975,6.168m21.924,-22.027l0.603,-0c0.496,-0 0.59,-0.347 0.59,-0.55c0,-0.532 -0.364,-0.532 -0.567,-0.532l-0.622,0l-0.004,1.082Zm-0.735,-1.703l1.338,-0c0.46,-0 1.361,-0 1.361,1.027c-0,0.716 -0.46,0.865 -0.734,0.955c0.536,0.036 0.572,0.388 0.644,0.883c0.036,0.311 0.094,0.847 0.203,1.027l-0.825,0c-0.022,-0.18 -0.149,-1.171 -0.149,-1.225c-0.054,-0.221 -0.13,-0.329 -0.405,-0.329l-0.68,-0l-0,1.559l-0.753,-0l0,-3.897Zm-1.608,1.937c-0,1.613 1.302,2.919 2.901,2.919c1.613,0 2.915,-1.333 2.915,-2.919c0,-1.617 -1.32,-2.901 -2.919,-2.901c-1.577,-0 -2.902,1.266 -2.902,2.896m6.38,0.014c-0,1.91 -1.563,3.469 -3.469,3.469c-1.893,0 -3.469,-1.541 -3.469,-3.469c-0,-1.964 1.613,-3.469 3.469,-3.469c1.869,-0 3.464,1.509 3.464,3.469" style="fill:#689f63;fill-rule:nonzero;"/><path d="M43.025,78.675c0,-0.829 -0.437,-1.59 -1.152,-2.003l-19.083,-10.979c-0.323,-0.19 -0.684,-0.289 -1.049,-0.302l-0.198,-0c-0.366,0.013 -0.726,0.112 -1.054,0.302l-19.082,10.979c-0.711,0.415 -1.154,1.176 -1.154,2.005l0.042,29.574c-0,0.41 0.211,0.793 0.572,0.995c0.351,0.217 0.793,0.217 1.144,0l11.345,-6.497c0.716,-0.426 1.153,-1.179 1.153,-2l0,-13.816c0,-0.824 0.437,-1.586 1.151,-1.996l4.83,-2.781c0.359,-0.207 0.752,-0.31 1.153,-0.31c0.395,-0 0.798,0.102 1.147,0.309l4.827,2.781c0.715,0.41 1.153,1.171 1.153,1.996l0,13.815c0,0.82 0.443,1.577 1.156,2l11.337,6.493c0.356,0.211 0.799,0.211 1.154,-0c0.349,-0.203 0.571,-0.586 0.571,-0.996l0.037,-29.569Zm90.049,15.398c-0,0.205 -0.11,0.396 -0.289,0.498l-6.554,3.778c-0.178,0.102 -0.398,0.102 -0.576,0l-6.555,-3.778c-0.18,-0.102 -0.288,-0.293 -0.288,-0.498l-0,-7.568c-0,-0.206 0.108,-0.396 0.284,-0.5l6.55,-3.784c0.181,-0.104 0.401,-0.104 0.582,-0l6.555,3.784c0.18,0.104 0.288,0.294 0.288,0.5l0.003,7.568Zm1.77,-56.048c-0.358,-0.2 -0.793,-0.194 -1.146,0.012c-0.351,0.207 -0.569,0.585 -0.569,0.995l0,29.285c0,0.289 -0.153,0.555 -0.402,0.699c-0.248,0.144 -0.557,0.144 -0.807,-0l-4.78,-2.753c-0.712,-0.412 -1.589,-0.412 -2.303,-0l-19.09,11.017c-0.713,0.41 -1.153,1.171 -1.153,1.991l0,22.04c0,0.825 0.44,1.582 1.153,1.996l19.09,11.025c0.713,0.41 1.59,0.41 2.305,-0l19.09,-11.029c0.711,-0.415 1.153,-1.172 1.153,-1.996l-0,-54.93c-0,-0.836 -0.455,-1.605 -1.185,-2.014l-11.356,-6.338Zm63.568,48.281c0.709,-0.412 1.146,-1.172 1.146,-1.992l-0,-5.342c-0,-0.822 -0.437,-1.58 -1.148,-1.993l-18.967,-11.012c-0.717,-0.414 -1.595,-0.414 -2.312,0l-19.085,11.016c-0.716,0.415 -1.153,1.172 -1.153,1.996l0,22.031c0,0.829 0.446,1.595 1.162,2.005l18.964,10.809c0.698,0.401 1.554,0.405 2.261,0.013l11.471,-6.375c0.361,-0.203 0.59,-0.586 0.59,-1c0,-0.415 -0.22,-0.802 -0.581,-1.005l-19.202,-11.02c-0.36,-0.203 -0.581,-0.586 -0.581,-0.996l-0,-6.911c-0,-0.413 0.216,-0.793 0.577,-0.998l5.974,-3.447c0.356,-0.207 0.793,-0.207 1.149,0l5.978,3.447c0.356,0.202 0.577,0.585 0.577,0.995l0,5.434c0,0.41 0.221,0.793 0.577,1c0.356,0.203 0.797,0.203 1.153,-0.004l11.45,-6.651Z" style="fill:#333;"/><path d="M178.008,85.275c0.135,-0.079 0.304,-0.079 0.441,0l3.663,2.113c0.137,0.08 0.221,0.226 0.221,0.383l-0,4.231c-0,0.158 -0.084,0.304 -0.221,0.383l-3.663,2.113c-0.137,0.08 -0.306,0.08 -0.441,-0l-3.661,-2.113c-0.14,-0.079 -0.225,-0.225 -0.225,-0.383l-0,-4.231c-0,-0.157 0.081,-0.303 0.221,-0.383l3.665,-2.113Z" style="fill:#689f63;"/><g><clipPath id="_clip1"><path d="M72.665,66.077l-18.981,10.956c-0.711,0.41 -1.147,1.167 -1.147,1.985l-0,21.927c-0,0.819 0.436,1.575 1.147,1.985l18.983,10.964c0.709,0.409 1.584,0.409 2.293,0l18.979,-10.964c0.708,-0.41 1.145,-1.167 1.145,-1.985l-0,-21.927c-0,-0.818 -0.437,-1.575 -1.149,-1.985l-18.977,-10.956c-0.356,-0.204 -0.752,-0.306 -1.149,-0.306c-0.396,-0 -0.793,0.102 -1.149,0.306"/></clipPath><g clip-path="url(#_clip1)"><path d="M114.265,75.173l-53.486,-26.217l-27.424,55.945l53.484,26.219l27.426,-55.947Z" style="fill:url(#_Linear2);fill-rule:nonzero;"/></g></g><g><clipPath id="_clip3"><path d="M53.007,102.337c0.182,0.236 0.409,0.44 0.676,0.593l16.283,9.405l2.712,1.559c0.405,0.234 0.868,0.333 1.322,0.3c0.151,-0.013 0.302,-0.041 0.45,-0.083l20.019,-36.656c-0.153,-0.166 -0.332,-0.306 -0.533,-0.423l-12.429,-7.177l-6.569,-3.78c-0.187,-0.108 -0.389,-0.185 -0.595,-0.239l-21.336,36.501Z"/></clipPath><g clip-path="url(#_clip3)"><path d="M29.882,82.927l37.766,51.115l49.947,-36.902l-37.769,-51.113l-49.944,36.9Z" style="fill:url(#_Linear4);fill-rule:nonzero;"/></g></g><g><clipPath id="_clip5"><path d="M73.582,65.784c-0.318,0.031 -0.629,0.13 -0.916,0.293l-18.928,10.925l20.41,37.174c0.284,-0.041 0.563,-0.136 0.815,-0.282l18.982,-10.964c0.585,-0.34 0.986,-0.914 1.108,-1.566l-20.806,-35.543c-0.153,-0.03 -0.306,-0.046 -0.464,-0.046c-0.063,0 -0.126,0.003 -0.189,0.009"/></clipPath><g clip-path="url(#_clip5)"><rect x="53.738" y="65.775" width="41.307" height="48.401" style="fill:url(#_Linear6);fill-rule:nonzero;"/></g></g></g><defs><linearGradient id="_Linear2" x1="0" y1="0" x2="1" y2="0" gradientUnits="userSpaceOnUse" gradientTransform="matrix(-27.4225,55.9416,-55.9416,-27.4225,-6510.85,-3172.45)"><stop offset="0" style="stop-color:#3e863d;stop-opacity:1"/><stop offset="0.3" style="stop-color:#3e863d;stop-opacity:1"/><stop offset="0.5" style="stop-color:#55934f;stop-opacity:1"/><stop offset="0.8" style="stop-color:#5aad45;stop-opacity:1"/><stop offset="1" style="stop-color:#5aad45;stop-opacity:1"/></linearGradient><linearGradient id="_Linear4" x1="0" y1="0" x2="1" y2="0" gradientUnits="userSpaceOnUse" gradientTransform="matrix(49.9488,-36.9062,36.9062,49.9488,6523.64,8871.5)"><stop offset="0" style="stop-color:#3e863d;stop-opacity:1"/><stop offset="0.57" style="stop-color:#3e863d;stop-opacity:1"/><stop offset="0.72" style="stop-color:#619857;stop-opacity:1"/><stop offset="1" style="stop-color:#76ac64;stop-opacity:1"/></linearGradient><linearGradient id="_Linear6" x1="0" y1="0" x2="1" y2="0" gradientUnits="userSpaceOnUse" gradientTransform="matrix(41.3007,0,0,41.3007,53.7751,10006.3)"><stop offset="0" style="stop-color:#6bbf47;stop-opacity:1"/><stop offset="0.16" style="stop-color:#6bbf47;stop-opacity:1"/><stop offset="0.38" style="stop-color:#79b461;stop-opacity:1"/><stop offset="0.47" style="stop-color:#75ac64;stop-opacity:1"/><stop offset="0.7" style="stop-color:#659e5a;stop-opacity:1"/><stop offset="0.9" style="stop-color:#3e863d;stop-opacity:1"/><stop offset="1" style="stop-color:#3e863d;stop-opacity:1"/></linearGradient></defs></svg>