<?xml version="1.0" encoding="UTF-8" standalone="no"?><!DOCTYPE svg PUBLIC "-//W3C//DTD SVG 1.1//EN" "http://www.w3.org/Graphics/SVG/1.1/DTD/svg11.dtd"><svg width="100%" height="100%" viewBox="0 0 200 200" version="1.1" xmlns="http://www.w3.org/2000/svg" xmlns:xlink="http://www.w3.org/1999/xlink" xml:space="preserve" xmlns:serif="http://www.serif.com/" style="fill-rule:evenodd;clip-rule:evenodd;stroke-linejoin:round;stroke-miterlimit:2;"><path d="M191.477,118.788c-1.106,-3.348 -4.002,-5.68 -7.747,-6.24c-1.766,-0.264 -3.789,-0.151 -6.182,0.342c-4.172,0.861 -7.267,1.189 -9.525,1.252c8.525,-14.394 15.457,-30.808 19.448,-46.26c6.454,-24.984 3.005,-36.366 -1.025,-41.515c-10.664,-13.626 -26.224,-20.947 -44.995,-21.171c-10.013,-0.122 -18.804,1.855 -23.389,3.276c-4.27,-0.753 -8.861,-1.174 -13.678,-1.251c-9.03,-0.144 -17.008,1.824 -23.825,5.87c-3.774,-1.277 -9.831,-3.076 -16.826,-4.224c-16.452,-2.701 -29.712,-0.596 -39.41,6.255c-11.745,8.296 -17.189,22.71 -16.182,42.84c0.32,6.392 3.895,25.838 9.525,44.281c3.235,10.6 6.685,19.403 10.254,26.166c5.061,9.59 10.476,15.238 16.556,17.266c3.407,1.135 9.598,1.93 16.11,-3.493c0.826,0.999 1.927,1.993 3.388,2.915c1.856,1.171 4.126,2.127 6.392,2.694c8.169,2.042 15.82,1.531 22.347,-1.331c0.041,1.161 0.072,2.27 0.098,3.228c0.043,1.554 0.086,3.077 0.143,4.502c0.387,9.632 1.042,17.122 2.984,22.362c0.106,0.288 0.25,0.728 0.401,1.194c0.969,2.966 2.589,7.931 6.71,11.82c4.267,4.028 9.429,5.263 14.157,5.263c2.371,0 4.633,-0.311 6.617,-0.736c7.073,-1.516 15.106,-3.825 20.917,-12.099c5.494,-7.822 8.165,-19.603 8.648,-38.166c0.063,-0.525 0.12,-1.026 0.176,-1.504l0.115,-0.981l1.294,0.114l0.334,0.022c7.204,0.329 16.012,-1.199 21.422,-3.712c4.274,-1.983 17.973,-9.215 14.748,-18.979" style="fill-rule:nonzero;"/><path d="M179.159,120.687c-21.42,4.418 -22.893,-2.834 -22.893,-2.834c22.616,-33.558 32.07,-76.155 23.912,-86.581c-22.258,-28.438 -60.788,-14.989 -61.431,-14.64l-0.207,0.037c-4.232,-0.878 -8.967,-1.401 -14.291,-1.488c-9.691,-0.159 -17.043,2.541 -22.622,6.771c-0,0 -68.733,-28.315 -65.536,35.612c0.68,13.6 19.493,102.903 41.931,75.929c8.202,-9.863 16.126,-18.203 16.126,-18.203c3.936,2.614 8.648,3.948 13.587,3.469l0.384,-0.325c-0.12,1.224 -0.065,2.422 0.153,3.84c-5.78,6.459 -4.081,7.592 -15.637,9.971c-11.693,2.41 -4.824,6.7 -0.339,7.822c5.437,1.359 18.015,3.285 26.514,-8.613l-0.338,1.358c2.264,1.814 3.854,11.8 3.588,20.853c-0.267,9.052 -0.444,15.266 1.34,20.121c1.785,4.854 3.563,15.777 18.755,12.522c12.692,-2.72 19.27,-9.769 20.186,-21.528c0.649,-8.359 2.119,-7.123 2.211,-14.597l1.179,-3.538c1.359,-11.332 0.216,-14.987 8.036,-13.287l1.901,0.167c5.755,0.262 13.289,-0.926 17.71,-2.981c9.52,-4.418 15.167,-11.795 5.779,-9.857l0.002,-0" style="fill:#336791;fill-rule:nonzero;"/><path d="M85.65,63.646c-1.93,-0.269 -3.678,-0.02 -4.563,0.649c-0.497,0.377 -0.651,0.814 -0.693,1.114c-0.111,0.796 0.447,1.676 0.79,2.13c0.969,1.285 2.385,2.168 3.787,2.362c0.203,0.029 0.405,0.042 0.606,0.042c2.337,-0 4.463,-1.82 4.65,-3.163c0.234,-1.683 -2.208,-2.804 -4.577,-3.134m63.946,0.053c-0.185,-1.319 -2.531,-1.695 -4.758,-1.385c-2.224,0.31 -4.381,1.314 -4.2,2.635c0.144,1.028 2,2.783 4.196,2.783c0.186,-0 0.373,-0.013 0.562,-0.039c1.467,-0.203 2.543,-1.135 3.054,-1.671c0.778,-0.818 1.229,-1.73 1.146,-2.323" style="fill:#fff;fill-rule:nonzero;"/><path d="M186.286,120.185c-0.816,-2.47 -3.445,-3.264 -7.813,-2.363c-12.968,2.677 -17.612,0.823 -19.137,-0.3c10.08,-15.356 18.372,-33.918 22.846,-51.236c2.119,-8.203 3.289,-15.822 3.385,-22.032c0.106,-6.816 -1.055,-11.824 -3.449,-14.884c-9.653,-12.334 -23.82,-18.95 -40.969,-19.132c-11.79,-0.132 -21.751,2.885 -23.682,3.733c-4.066,-1.011 -8.499,-1.632 -13.326,-1.711c-8.85,-0.143 -16.5,1.976 -22.834,6.295c-2.751,-1.024 -9.862,-3.465 -18.557,-4.866c-15.033,-2.42 -26.979,-0.586 -35.504,5.453c-10.172,7.207 -14.868,20.089 -13.958,38.288c0.306,6.123 3.795,24.959 9.3,42.997c7.247,23.742 15.125,37.183 23.414,39.948c0.97,0.323 2.089,0.549 3.322,0.549c3.024,0 6.731,-1.363 10.588,-5.999c4.704,-5.644 9.571,-11.15 14.593,-16.513c3.258,1.749 6.838,2.726 10.499,2.824c0.007,0.095 0.016,0.191 0.025,0.286c-0.63,0.752 -1.247,1.514 -1.851,2.287c-2.537,3.22 -3.065,3.891 -11.23,5.572c-2.323,0.48 -8.492,1.751 -8.582,6.075c-0.098,4.725 7.292,6.709 8.134,6.919c2.934,0.735 5.761,1.097 8.457,1.097c6.556,0 12.326,-2.155 16.937,-6.324c-0.142,16.844 0.561,33.441 2.583,38.498c1.657,4.14 5.703,14.257 18.484,14.256c1.876,0 3.94,-0.218 6.211,-0.705c13.34,-2.859 19.133,-8.755 21.373,-21.754c1.199,-6.946 3.257,-23.534 4.225,-32.432c2.043,0.637 4.672,0.929 7.515,0.928c5.929,0 12.771,-1.259 17.061,-3.251c4.82,-2.238 13.518,-7.731 11.94,-12.503Zm-31.767,-60.126c-0.043,2.627 -0.405,5.011 -0.788,7.501c-0.413,2.677 -0.839,5.445 -0.947,8.805c-0.105,3.269 0.303,6.669 0.698,9.957c0.798,6.641 1.617,13.477 -1.553,20.223c-0.527,-0.933 -0.996,-1.897 -1.405,-2.888c-0.394,-0.955 -1.249,-2.489 -2.434,-4.612c-4.609,-8.266 -15.402,-27.621 -9.877,-35.52c1.646,-2.35 5.823,-4.768 16.306,-3.466Zm-12.708,-44.502c15.366,0.34 27.521,6.088 36.126,17.085c6.601,8.434 -0.667,46.814 -21.708,79.924c-0.211,-0.269 -0.424,-0.537 -0.638,-0.804l-0.266,-0.333c5.437,-8.979 4.374,-17.864 3.427,-25.74c-0.389,-3.233 -0.756,-6.286 -0.662,-9.154c0.096,-3.039 0.498,-5.646 0.887,-8.167c0.478,-3.107 0.964,-6.321 0.83,-10.11c0.1,-0.398 0.14,-0.868 0.088,-1.425c-0.342,-3.634 -4.491,-14.509 -12.947,-24.351c-4.625,-5.384 -11.37,-11.409 -20.58,-15.473c3.961,-0.821 9.378,-1.586 15.443,-1.452Zm-85.981,115.974c-4.249,5.109 -7.183,4.13 -8.148,3.808c-6.288,-2.097 -13.584,-15.387 -20.017,-36.461c-5.566,-18.235 -8.818,-36.572 -9.076,-41.714c-0.813,-16.261 3.129,-27.594 11.717,-33.685c13.975,-9.91 36.953,-3.978 46.185,-0.97c-0.132,0.131 -0.271,0.254 -0.402,0.387c-15.151,15.301 -14.791,41.443 -14.754,43.041c-0.001,0.616 0.051,1.489 0.121,2.69c0.261,4.397 0.746,12.58 -0.55,21.848c-1.204,8.612 1.451,17.041 7.282,23.126c0.599,0.623 1.228,1.217 1.885,1.778c-2.596,2.78 -8.237,8.928 -14.243,16.152Zm16.191,-21.602c-4.701,-4.905 -6.835,-11.727 -5.858,-18.72c1.368,-9.789 0.864,-18.315 0.592,-22.896c-0.038,-0.641 -0.072,-1.203 -0.091,-1.646c2.213,-1.962 12.47,-7.458 19.785,-5.782c3.337,0.764 5.371,3.037 6.217,6.947c4.376,20.241 0.579,28.677 -2.472,35.457c-0.629,1.396 -1.223,2.716 -1.73,4.082l-0.393,1.056c-0.996,2.669 -1.922,5.151 -2.496,7.508c-4.997,-0.015 -9.858,-2.15 -13.554,-6.007l-0,0.001Zm0.767,27.297c-1.459,-0.365 -2.772,-0.998 -3.542,-1.523c0.644,-0.302 1.788,-0.714 3.773,-1.123c9.606,-1.978 11.09,-3.373 14.329,-7.487c0.743,-0.943 1.585,-2.012 2.751,-3.314l0.001,-0.002c1.737,-1.944 2.531,-1.614 3.972,-1.017c1.167,0.483 2.304,1.946 2.765,3.557c0.219,0.761 0.464,2.204 -0.338,3.327c-6.767,9.476 -16.629,9.354 -23.711,7.582Zm50.272,46.781c-11.751,2.518 -15.912,-3.478 -18.654,-10.333c-1.77,-4.425 -2.64,-24.38 -2.023,-46.417c0.008,-0.293 -0.034,-0.576 -0.114,-0.843c-0.072,-0.526 -0.182,-1.046 -0.329,-1.557c-0.917,-3.207 -3.154,-5.889 -5.837,-7.001c-1.065,-0.441 -3.022,-1.252 -5.373,-0.65c0.502,-2.066 1.371,-4.399 2.314,-6.925l0.395,-1.062c0.445,-1.198 1.004,-2.439 1.595,-3.752c3.193,-7.093 7.565,-16.809 2.82,-38.757c-1.778,-8.22 -7.714,-12.235 -16.713,-11.302c-5.394,0.558 -10.33,2.734 -12.792,3.983c-0.529,0.268 -1.013,0.527 -1.466,0.779c0.687,-8.283 3.283,-23.762 12.993,-33.556c6.115,-6.165 14.257,-9.211 24.178,-9.046c19.547,0.319 32.082,10.351 39.156,18.711c6.096,7.203 9.397,14.459 10.715,18.373c-9.907,-1.008 -16.645,0.948 -20.061,5.831c-7.43,10.622 4.065,31.239 9.59,41.147c1.014,1.816 1.888,3.385 2.163,4.052c1.799,4.36 4.129,7.272 5.829,9.396c0.522,0.651 1.027,1.283 1.412,1.835c-3.001,0.865 -8.39,2.863 -7.899,12.854c-0.396,5.013 -3.213,28.483 -4.644,36.775c-1.889,10.955 -5.921,15.035 -17.255,17.466l-0,-0.001Zm49.051,-56.133c-3.068,1.424 -8.202,2.492 -13.08,2.722c-5.387,0.252 -8.13,-0.604 -8.775,-1.13c-0.303,-6.226 2.014,-6.876 4.467,-7.565c0.385,-0.108 0.761,-0.214 1.124,-0.341c0.225,0.184 0.472,0.366 0.743,0.545c4.33,2.858 12.053,3.166 22.957,0.915l0.12,-0.023c-1.471,1.375 -3.988,3.22 -7.556,4.877Z" style="fill:#fff;fill-rule:nonzero;"/></svg>