<?xml version="1.0" encoding="UTF-8" standalone="no"?><!DOCTYPE svg PUBLIC "-//W3C//DTD SVG 1.1//EN" "http://www.w3.org/Graphics/SVG/1.1/DTD/svg11.dtd"><svg width="100%" height="100%" viewBox="0 0 200 200" version="1.1" xmlns="http://www.w3.org/2000/svg" xmlns:xlink="http://www.w3.org/1999/xlink" xml:space="preserve" xmlns:serif="http://www.serif.com/" style="fill-rule:evenodd;clip-rule:evenodd;stroke-linejoin:round;stroke-miterlimit:2;"><path id="path4" d="M121.45,108.399l-13.633,-99.975l-1.018,-0c-49.573,0.145 -89.723,40.295 -89.868,89.868l0,1.018l104.519,9.089Z" style="fill:#ed6c47;fill-rule:nonzero;"/><path id="path6" d="M108.835,8.424l-1.018,-0l0,90.886l45.443,18.177l45.443,-18.177l-0,-1.018c-0.145,-49.573 -40.295,-89.723 -89.868,-89.868Z" style="fill:#ff8f6b;fill-rule:nonzero;"/><path id="path8" d="M198.703,99.31l-0,1c-0.142,49.583 -40.303,89.744 -89.886,89.886l-2,-0c-49.583,-0.142 -89.744,-40.303 -89.886,-89.886l0,-1l181.772,-0Z" style="fill:#d35230;fill-rule:nonzero;"/><path id="path10" d="M112.361,53.094l0,96.976c-0.022,3.369 -2.064,6.396 -5.18,7.679c-0.992,0.42 -2.059,0.636 -3.136,0.637l-65.665,-0c-1.272,-1.455 -2.499,-3 -3.635,-4.545c-11.578,-15.444 -17.829,-34.229 -17.814,-53.531l0,-2c-0.026,-17.41 5.062,-34.444 14.633,-48.987c0.999,-1.546 2.045,-3.091 3.181,-4.545l69.3,0c4.579,0.035 8.282,3.738 8.316,8.316Z" style="fill-opacity:0.1;fill-rule:nonzero;"/><path id="path12" d="M107.817,57.639l0,96.975c0,1.077 -0.217,2.144 -0.636,3.136c-1.283,3.115 -4.31,5.157 -7.68,5.18l-56.986,0c-1.437,-1.46 -2.817,-2.976 -4.135,-4.544c-1.272,-1.454 -2.499,-2.999 -3.635,-4.545c-11.578,-15.444 -17.829,-34.229 -17.814,-53.531l-0,-2c-0.027,-17.41 5.062,-34.444 14.633,-48.987l67.937,-0c4.578,0.034 8.281,3.737 8.316,8.316Z" style="fill-opacity:0.2;fill-rule:nonzero;"/><path id="path14" d="M107.817,57.639l0,87.886c-0.035,4.579 -3.738,8.282 -8.316,8.317l-64.756,-0c-11.578,-15.445 -17.829,-34.23 -17.814,-53.532l0,-2c-0.026,-17.41 5.062,-34.444 14.633,-48.987l67.937,-0c4.578,0.034 8.281,3.737 8.316,8.316Z" style="fill-opacity:0.2;fill-rule:nonzero;"/><path id="path16" d="M103.273,57.639l-0,87.886c-0.035,4.579 -3.738,8.282 -8.316,8.317l-60.212,-0c-11.578,-15.445 -17.829,-34.23 -17.814,-53.532l0,-2c-0.026,-17.41 5.062,-34.444 14.633,-48.987l63.393,-0c4.578,0.034 8.281,3.737 8.316,8.316Z" style="fill-opacity:0.2;fill-rule:nonzero;"/><path id="path25" d="M11.628,49.323l83.315,-0c4.6,-0 8.33,3.729 8.33,8.329l-0,83.315c-0,4.601 -3.73,8.33 -8.33,8.33l-83.315,0c-4.6,0 -8.33,-3.729 -8.33,-8.329l0,-83.316c0,-4.6 3.73,-8.329 8.33,-8.329Z" style="fill:url(#_Linear1);fill-rule:nonzero;"/><path id="path27" d="M54.194,71.54c5.424,-0.366 10.801,1.209 15.169,4.444c3.644,3.253 5.591,8 5.281,12.874c0.059,3.389 -0.844,6.724 -2.604,9.62c-1.782,2.846 -4.35,5.116 -7.394,6.535c-3.479,1.618 -7.283,2.417 -11.12,2.336l-10.538,-0l0,19.586l-10.793,-0l0,-55.395l21.999,-0Zm-11.215,27.347l9.289,0c2.944,0.217 5.866,-0.655 8.211,-2.449c1.94,-1.861 2.956,-4.485 2.777,-7.166c-0,-6.105 -3.548,-9.157 -10.643,-9.157l-9.634,-0l0,18.772l0,0Z" style="fill:#fff;fill-rule:nonzero;"/><defs><linearGradient id="_Linear1" x1="0" y1="0" x2="1" y2="0" gradientUnits="userSpaceOnUse" gradientTransform="matrix(65.2393,112.992,-112.992,65.2393,20.6658,42.814)"><stop offset="0" style="stop-color:#ca4c28;stop-opacity:1"/><stop offset="0.5" style="stop-color:#c5401e;stop-opacity:1"/><stop offset="1" style="stop-color:#b62f14;stop-opacity:1"/></linearGradient></defs></svg>