<?xml version="1.0" encoding="UTF-8" standalone="no"?><!DOCTYPE svg PUBLIC "-//W3C//DTD SVG 1.1//EN" "http://www.w3.org/Graphics/SVG/1.1/DTD/svg11.dtd"><svg width="100%" height="100%" viewBox="0 0 200 200" version="1.1" xmlns="http://www.w3.org/2000/svg" xmlns:xlink="http://www.w3.org/1999/xlink" xml:space="preserve" xmlns:serif="http://www.serif.com/" style="fill-rule:evenodd;clip-rule:evenodd;stroke-linejoin:round;stroke-miterlimit:2;"><path d="M196.696,12.342c0,-4.981 -4.044,-9.025 -9.025,-9.025l-174.556,0c-4.982,0 -9.025,4.044 -9.025,9.025l-0,174.557c-0,4.981 4.043,9.025 9.025,9.025l174.556,0c4.981,0 9.025,-4.044 9.025,-9.025l0,-174.557Z" style="fill:#3178c6;"/><path d="M115.836,152.993l-0,21.105c3.834,1.892 7.921,3.224 12.134,3.955c4.869,0.899 9.811,1.341 14.762,1.321c4.826,0.023 9.64,-0.464 14.363,-1.452c4.241,-0.857 8.287,-2.489 11.935,-4.815c3.386,-2.186 6.178,-5.179 8.124,-8.709c3.483,-7.307 3.943,-15.702 1.279,-23.346c-1.124,-2.86 -2.8,-5.471 -4.932,-7.684c-2.288,-2.353 -4.887,-4.383 -7.725,-6.033c-3.267,-1.913 -6.662,-3.6 -10.16,-5.049c-2.751,-1.142 -5.228,-2.251 -7.429,-3.329c-1.955,-0.936 -3.826,-2.038 -5.592,-3.295c-1.384,-0.97 -2.585,-2.176 -3.55,-3.563c-0.833,-1.26 -1.267,-2.741 -1.245,-4.251c-0.018,-1.39 0.369,-2.755 1.114,-3.928c0.81,-1.228 1.89,-2.254 3.158,-2.999c1.549,-0.913 3.236,-1.57 4.994,-1.947c2.158,-0.48 4.365,-0.71 6.576,-0.688c1.86,0.007 3.717,0.14 5.558,0.399c1.989,0.269 3.956,0.676 5.888,1.218c1.966,0.544 3.888,1.234 5.751,2.063c1.808,0.806 3.537,1.778 5.166,2.903l-0,-19.694c-3.391,-1.283 -6.907,-2.205 -10.49,-2.751c-4.328,-0.63 -8.697,-0.927 -13.07,-0.888c-4.78,-0.026 -9.546,0.517 -14.198,1.617c-4.205,0.961 -8.203,2.668 -11.804,5.042c-3.345,2.228 -6.108,5.227 -8.055,8.743c-2.064,3.905 -3.085,8.277 -2.965,12.691c-0.152,5.838 1.772,11.544 5.428,16.097c4.486,5.049 10.143,8.921 16.474,11.274c2.889,1.192 5.584,2.36 8.083,3.501c2.255,1.004 4.422,2.193 6.48,3.557c1.659,1.079 3.117,2.441 4.306,4.024c1.046,1.435 1.601,3.17 1.582,4.946c0.01,1.33 -0.332,2.64 -0.99,3.797c-0.732,1.243 -1.76,2.285 -2.993,3.033c-1.542,0.941 -3.23,1.62 -4.994,2.009c-2.298,0.514 -4.648,0.756 -7.002,0.722c-4.621,-0.008 -9.204,-0.823 -13.545,-2.407c-4.534,-1.637 -8.739,-4.071 -12.416,-7.189Zm-35.453,-52.54l27.515,-0l-0,-17.383l-76.72,0l0,17.383l27.392,-0l-0,77.414l21.813,0l-0,-77.414Z" style="fill:#fff;"/></svg>