<?xml version="1.0" encoding="UTF-8" standalone="no"?><!DOCTYPE svg PUBLIC "-//W3C//DTD SVG 1.1//EN" "http://www.w3.org/Graphics/SVG/1.1/DTD/svg11.dtd"><svg width="100%" height="100%" viewBox="0 0 339 70" version="1.1" xmlns="http://www.w3.org/2000/svg" xmlns:xlink="http://www.w3.org/1999/xlink" xml:space="preserve" xmlns:serif="http://www.serif.com/" style="fill-rule:evenodd;clip-rule:evenodd;stroke-linejoin:round;stroke-miterlimit:2;"><rect id="curved" x="0" y="0" width="338.899" height="69.222" style="fill:none;"/><g><path d="M97.96,29.158c-0.672,-0.563 -1.407,-0.985 -2.203,-1.266c-0.829,-0.281 -1.704,-0.422 -2.625,-0.422c-1.719,0 -3.172,0.555 -4.36,1.664c-1.203,1.109 -1.805,2.484 -1.805,4.125c0,1.281 0.258,2.43 0.774,3.445c0.5,1.016 1.242,1.821 2.226,2.414c0.954,0.61 2.055,0.915 3.305,0.915c1.844,-0 3.422,-0.586 4.735,-1.758l4.101,5.203c-0.594,0.625 -1.422,1.18 -2.484,1.664c-1.078,0.484 -2.188,0.844 -3.328,1.078c-1.141,0.234 -2.196,0.352 -3.164,0.352c-2.719,-0 -5.118,-0.571 -7.196,-1.711c-2.078,-1.157 -3.672,-2.672 -4.781,-4.547c-1.109,-1.906 -1.664,-3.946 -1.664,-6.117c-0,-1.985 0.336,-3.782 1.008,-5.391c0.687,-1.641 1.633,-3.047 2.836,-4.219c1.187,-1.14 2.632,-2.039 4.336,-2.695c1.687,-0.641 3.507,-0.961 5.461,-0.961c1.593,-0 3.148,0.25 4.664,0.75c1.531,0.516 2.882,1.242 4.054,2.18l-3.89,5.297Z" style="fill-rule:nonzero;"/><path d="M114.389,46.689c-2.39,-0 -4.648,-0.563 -6.773,-1.688c-2.125,-1.125 -3.813,-2.664 -5.063,-4.617c-1.265,-1.969 -1.898,-4.172 -1.898,-6.609c-0,-1.828 0.367,-3.532 1.102,-5.11c0.734,-1.578 1.742,-2.945 3.023,-4.101c1.297,-1.172 2.773,-2.071 4.43,-2.696c1.687,-0.625 3.414,-0.937 5.179,-0.937c1.782,-0 3.516,0.312 5.203,0.937c1.641,0.594 3.118,1.485 4.43,2.672c1.297,1.188 2.305,2.563 3.024,4.125c0.734,1.578 1.101,3.282 1.101,5.11c0,1.859 -0.359,3.562 -1.078,5.109c-0.719,1.563 -1.734,2.945 -3.047,4.149c-1.328,1.187 -2.805,2.085 -4.43,2.695c-1.64,0.64 -3.375,0.961 -5.203,0.961Zm-6.257,-12.914c-0,1.672 0.625,3.109 1.875,4.312c1.234,1.203 2.695,1.805 4.382,1.805c1.703,-0 3.172,-0.602 4.407,-1.805c1.25,-1.203 1.875,-2.64 1.875,-4.312c-0,-1.094 -0.289,-2.102 -0.868,-3.024c-0.578,-0.922 -1.351,-1.656 -2.32,-2.203c-0.953,-0.547 -1.984,-0.82 -3.094,-0.82c-1.078,-0 -2.101,0.273 -3.07,0.82c-0.969,0.547 -1.742,1.281 -2.32,2.203c-0.578,0.922 -0.867,1.93 -0.867,3.024Z" style="fill-rule:nonzero;"/><path d="M140.1,27.751c1.907,0.078 2.86,1.407 2.86,3.985l-0,14.179l7.5,0l-0,-14.179c-0,-6.828 -3.453,-10.414 -10.36,-10.758l-0.422,-0c-6.906,0.344 -10.359,3.93 -10.359,10.758l0,14.179l7.5,0l0,-14.179c0,-2.578 0.953,-3.907 2.859,-3.985l0.422,0Z" style="fill-rule:nonzero;"/><path d="M172.866,31.173l-0,14.766l-7.524,-0l0,-14.766c-0.125,-2.203 -1.07,-3.336 -2.835,-3.398l-0.422,-0c-1.907,0.062 -2.86,1.383 -2.86,3.961l0,14.203l-7.5,-0l0,-14.203c0,-6.797 3.453,-10.383 10.36,-10.758l0.422,-0c2.75,0.156 4.953,0.812 6.609,1.969c1.641,-1.157 3.836,-1.813 6.586,-1.969l0.422,-0c6.906,0.375 10.359,3.961 10.359,10.758l0,14.203l-7.5,-0l0,-14.203c0,-2.578 -0.953,-3.899 -2.859,-3.961l-0.422,-0c-1.766,0.062 -2.711,1.195 -2.836,3.398Z" style="fill-rule:nonzero;"/><path d="M195.436,21.939l0,24.023l-7.476,0l-0,-24l7.476,-0.023Zm0.024,-6.797c-0,0.75 -0.172,1.414 -0.516,1.992c-0.344,0.578 -0.812,1.047 -1.406,1.406c-0.594,0.36 -1.25,0.539 -1.969,0.539c-0.719,0 -1.367,-0.171 -1.945,-0.515c-0.594,-0.36 -1.063,-0.836 -1.407,-1.43c-0.359,-0.625 -0.539,-1.289 -0.539,-1.992c0,-0.719 0.172,-1.375 0.516,-1.969c0.375,-0.609 0.852,-1.086 1.43,-1.43c0.578,-0.343 1.226,-0.515 1.945,-0.515c0.719,-0 1.375,0.172 1.969,0.515c0.578,0.344 1.047,0.821 1.406,1.43c0.344,0.594 0.516,1.25 0.516,1.969Z" style="fill-rule:nonzero;"/><path d="M203.991,33.845c-0,1.672 0.609,3.102 1.828,4.289c1.234,1.203 2.656,1.805 4.266,1.805c1.625,-0 3.054,-0.602 4.289,-1.805c1.218,-1.187 1.828,-2.617 1.828,-4.289c-0,-1.062 -0.281,-2.062 -0.844,-3c-0.562,-0.937 -1.312,-1.672 -2.25,-2.203c-0.953,-0.531 -1.961,-0.797 -3.023,-0.797c-1.063,0 -2.055,0.266 -2.977,0.797c-0.937,0.531 -1.695,1.266 -2.273,2.203c-0.563,0.938 -0.844,1.938 -0.844,3Zm12.094,-11.742c4.484,1.922 6.726,5.883 6.726,11.883l-0.023,12.703l-0,1.734c-0,3.078 -1.094,5.711 -3.281,7.899c-1.016,1.015 -2.375,1.82 -4.079,2.414c-1.593,0.562 -3.171,0.843 -4.734,0.843l-1.312,0c-3.563,-0.078 -6.399,-1.164 -8.508,-3.257c-1.422,-1.454 -2.282,-2.727 -2.578,-3.821l7.148,-4.148c0.078,1.234 0.57,2.281 1.477,3.14c0.906,0.86 1.984,1.29 3.234,1.29c0.984,-0 1.883,-0.282 2.695,-0.844c0.797,-0.547 1.367,-1.25 1.711,-2.11l0.024,-0.093l0.047,-0.118c0.031,-0.109 0.062,-0.218 0.093,-0.328c0.063,-0.187 0.102,-0.375 0.117,-0.562l0,-0.07l0.024,-0.071l0.023,-0.094l0,-0.14l0.024,-0l-0,-2.461l-0.188,0.094l-0.187,0.07c-1.563,0.641 -3.203,0.961 -4.922,0.961c-2.281,-0 -4.414,-0.57 -6.399,-1.711c-1.984,-1.109 -3.578,-2.664 -4.781,-4.664c-1.203,-2 -1.804,-4.227 -1.804,-6.68c-0,-1.859 0.351,-3.578 1.054,-5.156c0.672,-1.563 1.625,-2.953 2.86,-4.172c1.203,-1.156 2.593,-2.055 4.171,-2.695c1.594,-0.641 3.227,-0.961 4.899,-0.961c2.906,-0 5.062,0.375 6.469,1.125Z" style="fill-rule:nonzero;"/><path d="M237.717,46.689c-2.39,-0 -4.648,-0.563 -6.773,-1.688c-2.125,-1.125 -3.812,-2.664 -5.062,-4.617c-1.266,-1.969 -1.899,-4.172 -1.899,-6.609c0,-1.828 0.367,-3.532 1.102,-5.11c0.734,-1.578 1.742,-2.945 3.023,-4.101c1.297,-1.172 2.774,-2.071 4.43,-2.696c1.687,-0.625 3.414,-0.937 5.179,-0.937c1.782,-0 3.516,0.312 5.204,0.937c1.64,0.594 3.117,1.485 4.429,2.672c1.297,1.188 2.305,2.563 3.024,4.125c0.734,1.578 1.101,3.282 1.101,5.11c0,1.859 -0.359,3.562 -1.078,5.109c-0.719,1.563 -1.734,2.945 -3.047,4.149c-1.328,1.187 -2.804,2.085 -4.429,2.695c-1.641,0.64 -3.375,0.961 -5.204,0.961Zm-6.257,-12.914c-0,1.672 0.625,3.109 1.875,4.312c1.234,1.203 2.695,1.805 4.382,1.805c1.704,-0 3.172,-0.602 4.407,-1.805c1.25,-1.203 1.875,-2.64 1.875,-4.312c-0,-1.094 -0.289,-2.102 -0.867,-3.024c-0.579,-0.922 -1.352,-1.656 -2.321,-2.203c-0.953,-0.547 -1.984,-0.82 -3.094,-0.82c-1.078,-0 -2.101,0.273 -3.07,0.82c-0.969,0.547 -1.742,1.281 -2.32,2.203c-0.578,0.922 -0.867,1.93 -0.867,3.024Z" style="fill-rule:nonzero;"/></g><g><path d="M244.49,55.212c-0,-0.765 0.195,-1.461 0.586,-2.086c0.406,-0.656 0.93,-1.164 1.57,-1.523c0.656,-0.375 1.352,-0.563 2.086,-0.563c0.735,0 1.43,0.188 2.086,0.563c0.641,0.39 1.156,0.906 1.547,1.547c0.391,0.625 0.586,1.312 0.586,2.062c-0,1.25 -0.406,2.281 -1.219,3.094c-0.828,0.828 -1.828,1.242 -3,1.242c-0.781,0 -1.492,-0.187 -2.133,-0.562c-0.656,-0.375 -1.172,-0.899 -1.547,-1.571c-0.375,-0.687 -0.562,-1.422 -0.562,-2.203Z" style="fill-rule:nonzero;"/><path d="M274.138,46.798c0,-1.094 -0.289,-2.094 -0.867,-3c-0.578,-0.922 -1.351,-1.656 -2.32,-2.203c-0.953,-0.547 -1.977,-0.82 -3.07,-0.82c-1.094,-0 -2.125,0.273 -3.094,0.82c-0.969,0.547 -1.742,1.281 -2.32,2.203c-0.579,0.906 -0.868,1.906 -0.868,3c0,1.672 0.625,3.11 1.875,4.313c1.235,1.203 2.703,1.804 4.407,1.804c1.687,0 3.148,-0.601 4.382,-1.804c1.25,-1.203 1.875,-2.641 1.875,-4.313Zm7.477,0.164c-0.016,2.375 -0.648,4.524 -1.898,6.446c-1.25,1.953 -2.938,3.484 -5.063,4.593c-2.125,1.125 -4.383,1.688 -6.773,1.688c-1.829,-0 -3.563,-0.321 -5.204,-0.961c-1.625,-0.594 -3.101,-1.492 -4.429,-2.695c-1.313,-1.204 -2.328,-2.579 -3.047,-4.125c-0.719,-1.547 -1.078,-3.25 -1.078,-5.11c-0,-1.812 0.367,-3.508 1.101,-5.086c0.719,-1.562 1.727,-2.929 3.024,-4.101c1.312,-1.188 2.789,-2.086 4.429,-2.696c1.688,-0.609 3.422,-0.914 5.204,-0.914c1.765,0 3.492,0.305 5.179,0.914l1.078,0.469l0,-9.891l7.477,0.024l-0,21.445Z" style="fill-rule:nonzero;"/><path d="M295.959,40.751c1.047,0 2.031,0.266 2.953,0.797c0.562,0.344 1.109,0.828 1.64,1.453l-9.187,0c0.531,-0.625 1.078,-1.109 1.641,-1.453c0.921,-0.531 1.906,-0.797 2.953,-0.797Zm12.117,0.938c-0.703,-1.594 -1.672,-2.961 -2.906,-4.102c-1.25,-1.172 -2.664,-2.062 -4.243,-2.672c-1.593,-0.625 -3.25,-0.937 -4.968,-0.937c-1.719,-0 -3.383,0.312 -4.992,0.937c-1.563,0.61 -2.969,1.508 -4.219,2.696c-1.235,1.156 -2.203,2.515 -2.906,4.078c-0.704,1.547 -1.055,3.234 -1.055,5.062c-0,2.438 0.609,4.633 1.828,6.586c1.187,1.953 2.805,3.492 4.852,4.617c2,1.11 4.164,1.664 6.492,1.664c1.718,0 3.375,-0.312 4.968,-0.937c1.188,-0.484 2.36,-1.195 3.516,-2.133l-4.031,-5.765l-0.047,0.07l-0.07,0.07l-0.071,0.094l-0.047,0.047c-1.187,1.187 -2.593,1.781 -4.218,1.781c-1.61,0 -3.016,-0.594 -4.219,-1.781c-0.953,-0.953 -1.523,-2.086 -1.711,-3.399l16.125,0l0,-0.047l2.906,0l0.047,-0.398c0.016,-0.094 0.024,-0.18 0.024,-0.258l-0,-0.211c-0,-1.797 -0.352,-3.484 -1.055,-5.062Z" style="fill-rule:nonzero;"/><path d="M331.865,34.939l-12.633,24.961l-12.187,-24.914l7.617,-0.047l4.664,10.64l4.594,-10.64l7.945,-0Z" style="fill-rule:nonzero;"/></g><g><path d="M70.6,23.384c-0,-7.037 -5.713,-12.75 -12.75,-12.75l-36.451,0c-7.037,0 -12.75,5.713 -12.75,12.75l0,25.5c0,7.037 5.713,12.75 12.75,12.75l36.451,0c7.037,0 12.75,-5.713 12.75,-12.75l-0,-25.5Z" style="fill:#000200;"/><g><path d="M54.556,39.773c-0,-0.946 -0.23,-1.811 -0.69,-2.595c-0.46,-0.797 -1.076,-1.432 -1.846,-1.905c-0.759,-0.473 -1.573,-0.71 -2.443,-0.71c-0.871,0 -1.691,0.237 -2.462,0.71c-0.771,0.473 -1.386,1.108 -1.846,1.905c-0.46,0.784 -0.69,1.649 -0.69,2.595c0,1.446 0.497,2.689 1.492,3.73c0.982,1.041 2.151,1.561 3.506,1.561c1.342,0 2.505,-0.52 3.487,-1.561c0.994,-1.041 1.492,-2.284 1.492,-3.73Zm5.948,0.142c-0.012,2.054 -0.516,3.912 -1.51,5.575c-0.995,1.689 -2.337,3.014 -4.028,3.973c-1.691,0.973 -3.487,1.46 -5.389,1.46c-1.455,-0 -2.835,-0.277 -4.14,-0.831c-1.293,-0.514 -2.468,-1.291 -3.524,-2.332c-1.045,-1.04 -1.853,-2.23 -2.425,-3.568c-0.571,-1.338 -0.857,-2.811 -0.857,-4.419c-0,-1.568 0.292,-3.034 0.876,-4.399c0.572,-1.352 1.374,-2.534 2.406,-3.548c1.044,-1.027 2.219,-1.804 3.524,-2.331c1.343,-0.527 2.722,-0.791 4.14,-0.791c1.404,0 2.778,0.264 4.121,0.791l0.858,0.405l-0,-8.555l5.948,0.021l0,18.549Z" style="fill:#fff;fill-rule:nonzero;"/><path d="M34.165,35.867c-0.561,-0.486 -1.174,-0.851 -1.84,-1.094c-0.691,-0.244 -1.422,-0.365 -2.191,-0.365c-1.435,-0 -2.648,0.479 -3.64,1.439c-1.004,0.959 -1.507,2.148 -1.507,3.566c0,1.108 0.216,2.101 0.646,2.979c0.418,0.878 1.037,1.574 1.859,2.087c0.796,0.527 1.716,0.79 2.759,0.79c1.54,0 2.857,-0.506 3.953,-1.52l3.424,4.499c-0.495,0.54 -1.187,1.02 -2.074,1.439c-0.9,0.418 -1.826,0.729 -2.778,0.932c-0.953,0.202 -1.833,0.304 -2.642,0.304c-2.27,-0 -4.273,-0.493 -6.008,-1.479c-1.735,-1 -3.065,-2.311 -3.992,-3.932c-0.926,-1.648 -1.389,-3.411 -1.389,-5.288c0,-1.716 0.281,-3.27 0.842,-4.661c0.574,-1.419 1.363,-2.634 2.367,-3.648c0.992,-0.986 2.198,-1.762 3.62,-2.33c1.409,-0.554 2.929,-0.831 4.56,-0.831c1.33,0 2.628,0.216 3.894,0.649c1.278,0.446 2.407,1.074 3.385,1.884l-3.248,4.58Z" style="fill:#fff;fill-rule:nonzero;"/></g></g><circle cx="19.084" cy="21.211" r="3.975" style="fill:#fff;"/></svg>