<?xml version="1.0" encoding="UTF-8" standalone="no"?><!DOCTYPE svg PUBLIC "-//W3C//DTD SVG 1.1//EN" "http://www.w3.org/Graphics/SVG/1.1/DTD/svg11.dtd"><svg width="100%" height="100%" viewBox="0 0 110 120" version="1.1" xmlns="http://www.w3.org/2000/svg" xmlns:xlink="http://www.w3.org/1999/xlink" xml:space="preserve" xmlns:serif="http://www.serif.com/" style="fill-rule:evenodd;clip-rule:evenodd;stroke-linejoin:round;stroke-miterlimit:2;"><path d="M65.307,61.019c7.98,9.477 -8.149,37.8 -21.68,50.16c-13.532,12.359 -26.05,10.201 -34.03,0.723c-7.98,-9.477 -14.572,-32.637 -1.041,-44.997c13.532,-12.359 48.771,-15.364 56.751,-5.886Z" style="fill:url(#_Linear1);fill-rule:nonzero;"/><path d="M68.122,49.96c-8.11,1.443 -19.055,-17.257 -21.673,-29.156c-2.618,-11.899 2.785,-18.389 10.895,-19.833c8.109,-1.444 23.634,2.459 26.252,14.358c2.618,11.9 -7.365,33.187 -15.474,34.631Z" style="fill:url(#_Linear2);fill-rule:nonzero;"/><path d="M78.696,59.931c-2.192,-4.926 7.972,-14.819 15.121,-18.351c7.15,-3.533 12.123,-1.118 14.314,3.808c2.191,4.926 2.15,15.404 -5,18.936c-7.15,3.533 -22.244,0.533 -24.436,-4.393Z" style="fill:url(#_Linear3);fill-rule:nonzero;"/><defs><linearGradient id="_Linear1" x1="0" y1="0" x2="1" y2="0" gradientUnits="userSpaceOnUse" gradientTransform="matrix(101.901,-59.9868,59.9868,101.901,-4.97579,114.461)"><stop offset="0" style="stop-color:#0056f5;stop-opacity:1"/><stop offset="0.78" style="stop-color:#fff8e9;stop-opacity:0.48"/><stop offset="1" style="stop-color:#fff8e9;stop-opacity:0.48"/></linearGradient><linearGradient id="_Linear2" x1="0" y1="0" x2="1" y2="0" gradientUnits="userSpaceOnUse" gradientTransform="matrix(0.6648,78.6084,-78.6084,0.6648,60.7147,-8.26956)"><stop offset="0" style="stop-color:#0056f5;stop-opacity:1"/><stop offset="0.78" style="stop-color:#fff8e9;stop-opacity:0.48"/><stop offset="1" style="stop-color:#fff8e9;stop-opacity:0.48"/></linearGradient><linearGradient id="_Linear3" x1="0" y1="0" x2="1" y2="0" gradientUnits="userSpaceOnUse" gradientTransform="matrix(-49.8448,12.7692,-12.7692,-49.8448,114.532,46.0783)"><stop offset="0" style="stop-color:#f37726;stop-opacity:1"/><stop offset="0.78" style="stop-color:#fff8e9;stop-opacity:0.48"/><stop offset="1" style="stop-color:#fff8e9;stop-opacity:0.48"/></linearGradient></defs></svg>